<?xml version="1.0" encoding="utf-8"?>
<!-- Generator: Adobe Illustrator 23.0.1, SVG Export Plug-In . SVG Version: 6.00 Build 0)  -->
<svg version="1.1" id="Livello_1" xmlns="http://www.w3.org/2000/svg" xmlns:xlink="http://www.w3.org/1999/xlink" x="0px" y="0px"
	 viewBox="0 0 64 86" style="enable-background:new 0 0 64 86;" xml:space="preserve">
<style type="text/css">
	.st0{fill:#FFFFFF;}
</style>
<g>
	<path class="st0" d="M5.46,27.98c17.8,0,35.33,0,52.66,0c0,3.75,0.14,7.44-0.02,11.12c-0.59,13.54-1.3,27.08-1.94,40.62
		c-0.18,3.91-1.23,4.97-5.12,4.97c-12.78,0-25.57,0.01-38.35,0c-3.35,0-4.58-1.07-4.75-4.47C7.25,66.32,6.62,52.43,5.96,38.54
		C5.8,35.06,5.63,31.58,5.46,27.98z M43.52,55.93c0.01,0,0.02,0,0.03,0c-0.25,5.67-0.49,11.34-0.76,17.01
		c-0.07,1.41,0.21,2.68,1.81,2.8c1.63,0.12,2.05-1.14,2.11-2.54c0.49-11.48,0.98-22.96,1.47-34.45c0.06-1.32-0.26-2.49-1.8-2.58
		c-1.67-0.09-2.04,1.11-2.1,2.52C44.04,44.45,43.78,50.19,43.52,55.93z M16.59,55.69c0,0-0.01,0-0.01,0
		c0.26,5.82,0.53,11.65,0.75,17.47c0.06,1.43,0.45,2.66,2.07,2.58c1.62-0.08,1.89-1.36,1.83-2.77c-0.49-11.37-0.95-22.74-1.43-34.11
		c-0.06-1.43-0.35-2.83-2.19-2.66c-1.66,0.16-1.78,1.49-1.72,2.85C16.13,44.6,16.35,50.15,16.59,55.69z M29.91,55.99c0,4,0,8,0,12
		c0,1.9-0.17,3.82,0.1,5.67c0.11,0.78,1.17,1.42,1.8,2.12c0.66-0.69,1.36-1.34,1.95-2.08c0.17-0.22,0.04-0.68,0.04-1.03
		c0-11.16,0-22.32-0.01-33.48c0-0.49,0.14-1.14-0.11-1.44c-0.53-0.63-1.29-1.5-1.93-1.48c-0.62,0.02-1.33,0.95-1.77,1.63
		c-0.26,0.4-0.08,1.09-0.08,1.65C29.91,45.04,29.91,50.51,29.91,55.99z"/>
	<path class="st0" d="M7.19,14.81c1.5-4.7,2.78-5.62,7.57-5.62c2.39,0,4.77-0.03,7.16,0.01c1.02,0.02,1.59-0.14,1.89-1.35
		c1.01-4.05,4.13-6.51,7.97-6.53c3.88-0.01,6.94,2.35,8.04,6.43c0.33,1.24,0.92,1.49,2.05,1.46c2.6-0.07,5.19-0.02,7.79-0.02
		c4.75,0.01,6.03,0.94,7.5,5.62c1.39,0,2.86,0.02,4.31-0.01c1.42-0.03,2.05,0.66,2.04,2.05c-0.01,1.82-0.06,3.65,0.02,5.47
		c0.08,1.83-0.73,2.47-2.51,2.46c-8-0.05-16-0.02-24-0.02c-11.23,0-22.46,0-33.69,0c-2.69,0-2.83-0.16-2.84-2.89
		c-0.01-1.68,0.03-3.37-0.01-5.05c-0.03-1.43,0.64-2.04,2.05-2.01C4.05,14.84,5.59,14.81,7.19,14.81z M36.26,9.06
		c-0.77-2.85-2.52-4.24-4.83-4.03c-2.14,0.2-3.62,1.69-3.85,4.03C30.43,9.06,33.26,9.06,36.26,9.06z"/>
</g>
</svg>
